<svg width="88" height="88" viewBox="0 0 88 88" fill="none" xmlns="http://www.w3.org/2000/svg">
<path d="M86 44C86 67.759 66.9614 87 43.5 87C20.0386 87 1 67.759 1 44C1 20.2409 20.0386 1 43.5 1C66.9614 1 86 20.2409 86 44Z" stroke="black" stroke-width="2"/>
<path d="M74 45C74 60.9708 60.3912 74 43.5 74C26.6088 74 13 60.9708 13 45C13 29.0292 26.6088 16 43.5 16C60.3912 16 74 29.0292 74 45Z" stroke="black" stroke-width="2"/>
<path d="M70.4987 58.067C61.9862 66.7599 49.4711 67.8536 42.5265 61.0531C35.5818 54.2526 36.4129 41.7173 44.9254 33.0244C53.4379 24.3315 65.953 23.2378 72.8976 30.0383C79.8423 36.8388 79.0112 49.3741 70.4987 58.067Z" fill="white" stroke="black" stroke-width="2"/>
<circle cx="60.489" cy="42" r="8" stroke="black" stroke-width="2"/>
<rect x="22.5" y="18.5" width="10" height="51" rx="5" fill="white" stroke="black"/>
<rect x="12.5" y="18.5" width="9" height="51" rx="4.5" fill="white" stroke="black"/>
<rect x="1.85817" y="25" width="7" height="2" transform="rotate(18.0409 1.85817 25)" fill="white"/>
<rect x="18.1372" y="50" width="7" height="2" transform="rotate(3.93447 18.1372 50)" fill="white"/>
<rect x="71.0592" y="31.242" width="7" height="2" transform="rotate(-0.0694455 71.0592 31.242)" fill="white"/>
</svg>
